<svg width="137" height="212" viewBox="0 0 137 212" fill="none" xmlns="http://www.w3.org/2000/svg">
<path d="M77.4 164.4L77.4 169.4L82.4 169.4L82.4 164.4L77.4 164.4ZM77.4 129.9L82.4 129.9L82.4 124.9L77.4 124.9L77.4 129.9ZM9.90001 129.9L4.90001 129.9L4.90001 134.9L9.90001 134.9L9.90001 129.9ZM9.90001 85.2L9.90001 80.2L4.90001 80.2L4.90001 85.2L9.90001 85.2ZM77.4 85.2L77.4 90.2L82.4 90.2L82.4 85.2L77.4 85.2ZM77.4 47.1L82.4 47.1L82.4 42.1L77.4 42.1L77.4 47.1ZM0.900016 47.1L-4.09998 47.1L-4.09998 52.1L0.900016 52.1L0.900016 47.1ZM0.90002 -1.3297e-05L0.900021 -5.00001L-4.09998 -5.00001L-4.09998 -1.37341e-05L0.90002 -1.3297e-05ZM136.2 -1.4687e-06L141.2 -1.03159e-06L141.2 -5L136.2 -5L136.2 -1.4687e-06ZM136.2 211.5L136.2 216.5L141.2 216.5L141.2 211.5L136.2 211.5ZM0.900002 211.5L-4.1 211.5L-4.1 216.5L0.900001 216.5L0.900002 211.5ZM0.900006 164.4L0.900006 159.4L-4.09999 159.4L-4.09999 164.4L0.900006 164.4ZM82.4 164.4L82.4 129.9L72.4 129.9L72.4 164.4L82.4 164.4ZM77.4 124.9L9.90001 124.9L9.90001 134.9L77.4 134.9L77.4 124.9ZM14.9 129.9L14.9 85.2L4.90001 85.2L4.90001 129.9L14.9 129.9ZM9.90001 90.2L77.4 90.2L77.4 80.2L9.90001 80.2L9.90001 90.2ZM82.4 85.2L82.4 47.1L72.4 47.1L72.4 85.2L82.4 85.2ZM77.4 42.1L0.900016 42.1L0.900016 52.1L77.4 52.1L77.4 42.1ZM5.90002 47.1L5.90002 -1.28599e-05L-4.09998 -1.37341e-05L-4.09998 47.1L5.90002 47.1ZM0.90002 4.99999L136.2 5L136.2 -5L0.900021 -5.00001L0.90002 4.99999ZM131.2 -1.90582e-06L131.2 211.5L141.2 211.5L141.2 -1.03159e-06L131.2 -1.90582e-06ZM136.2 206.5L0.900002 206.5L0.900001 216.5L136.2 216.5L136.2 206.5ZM5.9 211.5L5.90001 164.4L-4.09999 164.4L-4.1 211.5L5.9 211.5ZM0.900005 169.4L77.4 169.4L77.4 159.4L0.900006 159.4L0.900005 169.4Z" fill="#3D3C3C"/>
</svg>
