<svg width="126" height="212" viewBox="0 0 126 212" fill="none" xmlns="http://www.w3.org/2000/svg">
<path d="M59.6 167H54.6V172H59.6V167ZM125.3 167H130.3V162H125.3V167ZM125.3 212V217H130.3V212H125.3ZM0.800001 212H-4.2V217H0.800001V212ZM0.800001 0.499987V-4.50001H-4.2V0.499987H0.800001ZM59.6 0.499987H64.6V-4.50001H59.6V0.499987ZM59.6 172H125.3V162H59.6V172ZM120.3 167V212H130.3V167H120.3ZM125.3 207H0.800001V217H125.3V207ZM5.8 212V0.499987H-4.2V212H5.8ZM0.800001 5.49999H59.6V-4.50001H0.800001V5.49999ZM54.6 0.499987V167H64.6V0.499987H54.6Z" fill="#3D3C3C"/>
</svg>
